<svg version="1.2" xmlns="http://www.w3.org/2000/svg" viewBox="0 0 1500 1500" width="1500" height="1500">
	<title>zhm3q2d245fm8hzfzoc (1)</title>
	<style>
		.s0 { fill: #03a2ac } 
	</style>
	<g>
		<path fill-rule="evenodd" class="s0" d="m196.7 752.3c-40-48.6-59.5-96.5-61.5-143.5-4.1-98.8 54.4-172.4 141.3-225.4 91.4-55.8 185.4-69.7 276.8-111.3 45.7-20.7 100.1-54.7 190.7-127.1 29.6 78.5-64.6 204.5-217.6 271.2 47.4 1.8 98.5-12.7 154.2-48.7-3.7 99.7-82.3 161-256.5 184.7 36.7 12.3 80.5 12.9 136.4-2.9-53.9 179.8-276 51-363.8 203z"/>
		<path id="Layer copy" fill-rule="evenodd" class="s0" d="m1302.7 752.3c40-48.6 59.6-96.4 61.5-143.5 4.1-98.8-54.4-172.4-141.3-225.5-91.4-55.8-185.4-69.6-276.8-111.2-45.6-20.7-100.1-54.7-190.7-127.1-29.6 78.5 64.6 204.5 217.6 271.2-47.4 1.8-98.4-12.7-154.2-48.8 3.8 99.8 82.3 161.1 256.5 184.8-36.7 12.2-80.5 12.9-136.4-2.9 53.9 179.8 276 51 363.8 203z"/>
		<path id="Layer copy 2" fill-rule="evenodd" class="s0" d="m196.7 750c-40 48.6-59.5 96.4-61.5 143.5-4.1 98.7 54.4 172.4 141.3 225.4 91.4 55.8 185.4 69.7 276.8 111.3 45.7 20.8 100.1 54.8 190.7 127.1 29.6-78.5-64.6-204.5-217.6-271.1 47.4-1.9 98.5 12.6 154.2 48.6-3.7-99.7-82.3-161-256.5-184.7 36.7-12.3 80.5-12.9 136.4 2.9-53.9-179.8-276-51-363.8-203z"/>
		<path id="Layer copy 3" fill-rule="evenodd" class="s0" d="m1302.7 750c40 48.6 59.6 96.4 61.5 143.5 4.1 98.8-54.4 172.4-141.3 225.5-91.4 55.8-185.4 69.6-276.8 111.2-45.6 20.8-100.1 54.8-190.7 127.1-29.6-78.5 64.6-204.5 217.6-271.1-47.4-1.9-98.4 12.6-154.2 48.7 3.8-99.8 82.3-161.1 256.5-184.8-36.7-12.3-80.5-12.9-136.4 2.9 53.9-179.8 276-51 363.8-203z"/>
	</g>
	<path class="s0" d="m848.9 621.2c-5-15-10.7-27.2-14.7-31.6-3.3-3.6-5.6-4.8-21.7-11.2-20.1-7.9-26.2-10.2-33.1-12.2-3.4-0.9-6.5-1.8-6.9-2-0.5-0.1-0.5-1 0.2-3.3 2.9-9.7 3.1-13.4 2.9-52.6-0.1-43.6 0.6-63.2 3.5-88.1 1.8-15.7 4.5-28.1 7.2-33.4 0.5-1 2.1-3.2 3.5-4.7 4.7-5.2 5.9-10.5 3.8-17.4-2.3-7.8-8.6-13.2-18.5-16-20-5.9-46.3-4.6-61.2 3-7.4 3.8-11.7 10.6-11.7 18.6 0 5.4 0.9 7.7 4.3 11.7 1.4 1.6 3.2 4.1 3.9 5.6 3.7 7 6.3 22.1 9 51.9 0.8 9.3 1.1 20.6 1.1 57.6 0.2 47.3 0.4 52.4 2.9 62.2 0.9 3.4 1 4.8 0.5 4.9-0.5 0.2-3 0.9-5.6 1.7-7.8 2.2-14.7 4.7-33.8 12.4-17 6.7-18.2 7.3-21.2 10.4-3.4 3.4-7.1 9.9-10.6 18.6q-10.4 25.9-6.7 29.9c2.7 3 6.7 1.2 18.9-8.7 11.5-9.1 23.1-17 33.6-22.5 8-4.1 21.7-9.9 23.5-9.9 0.8 0 0.9 1.5 0.5 12.1-0.2 6.6-0.5 27.4-0.7 46.1-0.8 81-1.8 110.4-4.5 139.5-1.6 17.9-3 34.5-4.2 53.7-1.1 15.4-1.1 58.5 0 71.4 3.3 41 5.5 63 11 107 6.1 48.9 10.2 76.4 13.1 88.4 2.4 9.9 10.2 38.2 10.7 38.8 0.5 0.7 10.5-35.7 12.8-46.9 2.9-14.3 10.8-71.2 14.8-105.7 7.2-62 9-85.6 9-116.4 0-26.9-1.4-51.8-5.1-89.3-2.9-29.1-3.6-47-4.5-126.4-0.4-30-0.8-58.6-0.9-63.5-0.1-6.7 0.1-8.8 0.7-8.8 1.7 0 13 4.7 21.4 9 11.1 5.6 23.6 13.9 35.4 23.3 5.1 4.2 10.4 8.1 11.9 8.8 8.3 4.1 10.2-1.7 5.5-16z"/>
</svg>