<svg version="1.2" xmlns="http://www.w3.org/2000/svg" viewBox="0 0 535 618" width="535" height="618">
	<title>COMBINED ARMS</title>
	<style>
		.s0 { fill: #000000 } 
	</style>
	<path id="Layer copy" fill-rule="evenodd" class="s0" d="m211.8 333.2c11.5-14 17.2-27.6 17.6-41.2 1.3-28.2-15.5-49.3-40.4-64.5-26.2-16-53.1-20-79.3-31.9-13-5.9-28.6-15.6-54.6-36.4-8.4 22.5 18.5 58.6 62.3 77.6-13.6 0.6-28.2-3.5-44.1-13.9 1 28.5 23.5 46.2 73.5 52.9-10.6 3.6-23.1 3.7-39.1-0.7 15.5 51.4 79 14.6 104.1 58.1z"/>
	<path id="Layer copy 2" fill-rule="evenodd" class="s0" d="m323.3 333.2c-11.5-14-17.2-27.6-17.7-41.2-1.2-28.2 15.5-49.3 40.4-64.5 26.2-16 53.2-20 79.4-31.9 13-5.9 28.6-15.6 54.5-36.4 8.5 22.5-18.5 58.6-62.3 77.6 13.6 0.6 28.2-3.5 44.1-13.9-1 28.5-23.5 46.2-73.4 52.9 10.6 3.6 23 3.7 39.1-0.7-15.5 51.4-79.1 14.6-104.1 58.1z"/>
	<path class="s0" d="m313.8 330.4c-2.3-6.9-5-12.4-6.9-14.5-1.3-1.6-2.5-2-9.8-5-9.2-3.7-11.9-4.8-15.1-5.7-1.6-0.3-3-0.7-3.2-0.9q-0.4 0 0-1.4c1.4-4.6 1.6-6.2 1.4-24.1 0-20.1 0.2-29 1.6-40.5 0.9-7.1 2-12.8 3.4-15.1 0.2-0.4 0.9-1.6 1.6-2.3 2.1-2.3 2.5-4.8 1.6-8-0.9-3.4-3.9-5.9-8.5-7.3-9.1-2.5-21-2.1-27.9 1.4-3.4 1.8-5.5 5-5.5 8.7 0 2.2 0.5 3.4 2.1 5.2 0.6 0.7 1.3 1.9 1.8 2.5 1.6 3.2 2.7 10.1 4.1 23.9 0.2 4.3 0.5 9.3 0.5 26.3 0 21.7 0.2 24 1.3 28.6 0.5 1.4 0.5 2.1 0.3 2.1-0.3 0.2-1.4 0.4-2.5 0.9-3.7 0.9-6.9 2-15.6 5.7-7.8 3-8.3 3.2-9.6 4.6-1.6 1.6-3.5 4.6-5.1 8.7q-4.5 11.7-2.9 13.5c1.1 1.4 2.9 0.7 8.7-3.9 5.2-4.1 10.5-7.8 15.3-10.3 3.7-1.8 9.8-4.6 10.8-4.6 0.4 0 0.4 0.7 0.2 5.5 0 3.2-0.2 12.6-0.2 21.3-0.5 37.1-1 50.4-2.1 63.9-0.9 8-1.4 15.8-2.1 24.5-0.4 7.1-0.4 26.8 0 32.7 1.6 18.8 2.6 28.9 5.1 49 2.7 22.4 4.8 35 5.9 40.5 1.2 4.4 4.8 17.4 5.1 17.7 0.2 0.4 4.8-16.3 5.7-21.6 1.4-6.4 5-32.5 6.9-48.3 3.2-28.4 4.1-39.1 4.1-53.3 0-12.4-0.7-23.6-2.3-40.8-1.4-13.5-1.6-21.5-2.1-57.9-0.2-13.7-0.4-26.8-0.4-29.1 0-3.2 0-4.1 0.2-4.1 0.9 0 5.9 2.3 9.8 4.1 5.1 2.6 10.8 6.4 16.3 10.8 2.3 1.8 4.8 3.7 5.5 3.9 3.7 2 4.6-0.7 2.5-7.3z"/>
	<path class="s0" d="m266.4 180.9c15.6 0 93.6-1.2 93.6-24.3 0-23.1-78-24.3-93.6-24.3-15.6 0-93.6 1.2-93.6 24.3 0 23.1 78 24.3 93.6 24.3zm0-34.7c43.5 0 70.2 6.2 78 10.4-7.9 4.2-34.5 10.4-78 10.4-43.5 0-70.1-6.2-78-10.4 7.9-4.2 34.5-10.4 78-10.4z"/>
	<g id="Combined_Arms">
	</g>
	<g id="Layer_31">
		<path class="s0" d="m267.5 0l-12.5 7.2-242.5 140-12.5 7.2v308.9l12.5 7.2 242.5 140 12.5 7.2 12.5-7.2 242.5-140 12.5-7.2v-308.9l-12.5-7.2-242.5-140zm0 28.9l242.5 140v280l-242.5 140-242.5-140v-280z"/>
	</g>
</svg>