<svg version="1.2" xmlns="http://www.w3.org/2000/svg" viewBox="0 0 300 300" width="300" height="300">
	<title>zhm3q2d245fm8hzfzoc</title>
	<style>
		.s0 { fill: #000000 } 
	</style>
	<g>
		<path fill-rule="evenodd" class="s0" d="m39.3 150.5c-8-9.8-11.9-19.3-12.3-28.8-0.8-19.7 10.9-34.4 28.3-45 18.3-11.2 37.1-14 55.4-22.3 9.1-4.1 20-10.9 38.1-25.4 5.9 15.7-12.9 40.9-43.5 54.2 9.5 0.4 19.7-2.5 30.8-9.7-0.7 19.9-16.4 32.2-51.3 36.9 7.4 2.5 16.1 2.6 27.3-0.5-10.8 35.9-55.2 10.2-72.8 40.6z"/>
		<path id="Layer copy" fill-rule="evenodd" class="s0" d="m260.5 150.5c8-9.8 12-19.3 12.3-28.8 0.9-19.7-10.8-34.4-28.2-45-18.3-11.2-37.1-14-55.4-22.3-9.1-4.1-20-10.9-38.1-25.4-5.9 15.7 12.9 40.9 43.5 54.2-9.5 0.4-19.7-2.5-30.8-9.7 0.7 19.9 16.4 32.2 51.3 36.9-7.4 2.5-16.1 2.6-27.3-0.5 10.8 35.9 55.2 10.2 72.7 40.6z"/>
		<path id="Layer copy 2" fill-rule="evenodd" class="s0" d="m39.3 150c-8 9.7-11.9 19.3-12.3 28.7-0.8 19.7 10.9 34.5 28.3 45.1 18.3 11.1 37.1 13.9 55.4 22.2 9.1 4.2 20 11 38.1 25.5 5.9-15.7-12.9-40.9-43.5-54.3 9.5-0.3 19.7 2.6 30.8 9.8-0.7-20-16.4-32.2-51.3-37 7.4-2.4 16.1-2.6 27.3 0.6-10.8-36-55.2-10.2-72.8-40.6z"/>
		<path id="Layer copy 3" fill-rule="evenodd" class="s0" d="m260.5 150c8 9.7 12 19.3 12.3 28.7 0.9 19.7-10.8 34.5-28.2 45.1-18.3 11.2-37.1 13.9-55.4 22.2-9.1 4.2-20 11-38.1 25.5-5.9-15.7 12.9-40.9 43.5-54.3-9.5-0.3-19.7 2.6-30.8 9.8 0.7-20 16.4-32.2 51.3-37-7.4-2.4-16.1-2.6-27.3 0.6 10.8-36 55.2-10.2 72.7-40.6z"/>
	</g>
	<path class="s0" d="m169.8 124.2c-1-3-2.2-5.4-3-6.3-0.6-0.7-1.1-0.9-4.3-2.2-4-1.6-5.2-2.1-6.6-2.5-0.7-0.1-1.3-0.3-1.4-0.4-0.1 0-0.1-0.2 0-0.6 0.6-2 0.7-2.7 0.6-10.5 0-8.8 0.1-12.7 0.7-17.7 0.4-3.1 0.9-5.6 1.5-6.6 0.1-0.2 0.4-0.7 0.7-1 0.9-1 1.1-2.1 0.7-3.5-0.4-1.5-1.7-2.6-3.7-3.2-4-1.1-9.2-0.9-12.2 0.6-1.5 0.8-2.4 2.2-2.4 3.8 0 1 0.2 1.5 0.9 2.3 0.3 0.3 0.6 0.8 0.8 1.1 0.7 1.4 1.2 4.4 1.8 10.4 0.1 1.9 0.2 4.1 0.2 11.5 0 9.5 0.1 10.5 0.6 12.5 0.2 0.6 0.2 0.9 0.1 0.9-0.1 0.1-0.6 0.2-1.1 0.4-1.6 0.4-3 0.9-6.8 2.5-3.4 1.3-3.6 1.4-4.2 2-0.7 0.7-1.5 2-2.2 3.8q-2 5.1-1.3 5.9c0.5 0.6 1.3 0.3 3.8-1.7 2.3-1.8 4.6-3.4 6.7-4.5 1.6-0.8 4.3-2 4.7-2 0.2 0 0.2 0.3 0.1 2.4 0 1.4-0.1 5.5-0.1 9.3-0.2 16.2-0.4 22-0.9 27.9-0.4 3.5-0.6 6.9-0.9 10.7-0.2 3.1-0.2 11.7 0 14.3 0.7 8.2 1.1 12.6 2.2 21.4 1.2 9.8 2.1 15.3 2.6 17.7 0.5 1.9 2.1 7.6 2.2 7.7 0.1 0.2 2.1-7.1 2.5-9.4 0.6-2.8 2.2-14.2 3-21.1 1.4-12.4 1.8-17.1 1.8-23.3 0-5.4-0.3-10.3-1-17.8-0.6-5.9-0.7-9.4-0.9-25.3-0.1-6-0.2-11.7-0.2-12.7 0-1.4 0-1.8 0.1-1.8 0.4 0 2.6 1 4.3 1.8 2.2 1.1 4.7 2.8 7.1 4.7 1 0.8 2.1 1.6 2.4 1.7 1.6 0.9 2-0.3 1.1-3.2z"/>
</svg>